<svg width="20" height="21" viewBox="0 0 20 21" fill="none" xmlns="http://www.w3.org/2000/svg">
<path d="M18.6484 8.37457L17.2484 6.97457L17.9984 6.19957L14.7984 2.99957L14.0234 3.74957L12.5984 2.32457L13.3484 1.54957C13.7318 1.16624 14.2068 0.978573 14.7734 0.986573C15.3401 0.994573 15.8151 1.19057 16.1984 1.57457L19.4234 4.79957C19.8068 5.18291 19.9984 5.65357 19.9984 6.21157C19.9984 6.76957 19.8068 7.24057 19.4234 7.62457L18.6484 8.37457ZM6.64844 20.3996C6.2651 20.7829 5.79444 20.9746 5.23644 20.9746C4.67844 20.9746 4.20744 20.7829 3.82344 20.3996L0.598437 17.1746C0.215104 16.7912 0.0234375 16.3206 0.0234375 15.7626C0.0234375 15.2046 0.215104 14.7336 0.598437 14.3496L1.34844 13.5996L2.77344 15.0246L1.99844 15.7746L5.22344 18.9996L5.97344 18.2246L7.39844 19.6496L6.64844 20.3996ZM16.5734 11.9996L17.9984 10.5746L10.4234 2.99957L8.99844 4.42457L16.5734 11.9996ZM9.57344 18.9996L10.9984 17.5496L3.44844 9.99957L1.99844 11.4246L9.57344 18.9996ZM9.42344 13.1496L12.1734 10.4246L10.5734 8.82457L7.84844 11.5746L9.42344 13.1496ZM10.9984 20.3996C10.6151 20.7829 10.1401 20.9746 9.57344 20.9746C9.00677 20.9746 8.53177 20.7829 8.14844 20.3996L0.598437 12.8496C0.215104 12.4662 0.0234375 11.9912 0.0234375 11.4246C0.0234375 10.8579 0.215104 10.3829 0.598437 9.99957L2.02344 8.57457C2.40677 8.19124 2.87744 7.99957 3.43544 7.99957C3.99344 7.99957 4.46444 8.19124 4.84844 8.57457L6.42344 10.1496L9.17344 7.39957L7.59844 5.84957C7.2151 5.46624 7.02344 4.99124 7.02344 4.42457C7.02344 3.85791 7.2151 3.38291 7.59844 2.99957L9.02344 1.57457C9.40677 1.19124 9.87777 0.999573 10.4364 0.999573C10.9951 0.999573 11.4658 1.19124 11.8484 1.57457L19.4234 9.14957C19.8068 9.53291 19.9984 10.0036 19.9984 10.5616C19.9984 11.1196 19.8068 11.5906 19.4234 11.9746L17.9984 13.3996C17.6151 13.7829 17.1401 13.9746 16.5734 13.9746C16.0068 13.9746 15.5318 13.7829 15.1484 13.3996L13.5984 11.8246L10.8484 14.5746L12.4234 16.1496C12.8068 16.5329 12.9984 17.0039 12.9984 17.5626C12.9984 18.1212 12.8068 18.5919 12.4234 18.9746L10.9984 20.3996Z" fill="white"/>
</svg>
