<svg width="25" height="25" viewBox="0 0 25 25" fill="none" xmlns="http://www.w3.org/2000/svg">
<path d="M22.1568 2.77429H1.35683V0.059082H22.1568V2.77429ZM14.7468 10.9199C13.7068 12.2232 13.0568 13.8795 13.0568 15.6715C13.0568 17.2192 13.6158 18.8755 14.3568 20.4231V21.7807H1.35683V13.6351H0.0568314V10.9199L1.35683 4.13189H22.1568L23.0668 8.8835C22.2088 8.44907 21.2728 8.2047 20.2848 8.2047L20.0248 6.8471H3.48883L2.70883 10.9199H14.7468ZM11.7568 13.6351H3.95683V19.0655H11.7568V13.6351ZM24.7568 15.6715C24.7568 19.2013 20.2068 24.4959 20.2068 24.4959C20.2068 24.4959 15.6568 19.2013 15.6568 15.6715C15.6568 13.0921 17.7368 10.9199 20.2068 10.9199C22.6768 10.9199 24.7568 13.0921 24.7568 15.6715ZM21.7668 15.8073C21.7668 14.9927 20.9868 14.1782 20.2068 14.1782C19.4268 14.1782 18.6468 14.857 18.6468 15.8073C18.6468 16.6218 19.2968 17.4364 20.2068 17.4364C21.1168 17.4364 21.8968 16.6218 21.7668 15.8073Z" fill="black"/>
</svg>
