<svg width="34" height="36" viewBox="0 0 34 36" fill="none" xmlns="http://www.w3.org/2000/svg">
<path d="M28.9334 9.89752L27.6077 8.58158C25.0971 6.0887 21.777 4.56087 18.2381 4.26992C14.6992 3.97896 11.1711 4.94376 8.28152 6.99264C5.39194 9.04152 3.32829 12.0416 2.45775 15.4591C1.58721 18.8766 1.96624 22.4898 3.52739 25.656C5.08855 28.8221 7.73058 31.3357 10.9834 32.7497C14.2362 34.1636 17.8889 34.3861 21.2914 33.3776C24.694 32.3691 27.6258 30.195 29.5652 27.2421C31.5046 24.2892 31.9431 21.9975 31.5 18.5M28.9334 9.89752L20.9778 9.89938M28.9334 9.89752V2" stroke="#01FFF1" stroke-width="3" stroke-linecap="round" stroke-linejoin="round"/>
</svg>
