<svg width="24" height="29" viewBox="0 0 24 29" fill="none" xmlns="http://www.w3.org/2000/svg">
<path d="M1.43396 27.8367C0.999228 27.5583 0.641209 27.1606 0.396617 26.6844C0.152025 26.2082 0.0296632 25.6706 0.0420788 25.1268L0.344047 3.09172C0.346538 2.54775 0.483577 2.01429 0.741112 1.54604C0.998647 1.07778 1.36741 0.691582 1.80958 0.427044C2.23501 0.168818 2.71665 0.0368105 3.20516 0.044546C3.69367 0.0522815 4.17148 0.199482 4.58964 0.471066L22.2384 11.7679C22.6707 12.0502 23.0269 12.4489 23.2716 12.9247C23.5164 13.4005 23.6412 13.9368 23.6338 14.4804C23.6263 15.0241 23.4869 15.5562 23.2292 16.024C22.9715 16.4918 22.6045 16.8792 22.1646 17.1476L4.21399 27.8832C3.78836 28.1411 3.30662 28.2727 2.81811 28.2645C2.32961 28.2563 1.85191 28.1087 1.43396 27.8367Z" fill="#01FDFE"/>
</svg>
