<svg width="24" height="25" viewBox="0 0 24 25" fill="none" xmlns="http://www.w3.org/2000/svg">
<path d="M11.9989 10.0566C12.4585 10.0566 12.9137 9.96611 13.3383 9.79022C13.7629 9.61433 14.1488 9.35652 14.4738 9.03151C14.7988 8.70651 15.0566 8.32067 15.2325 7.89603C15.4084 7.47139 15.4989 7.01627 15.4989 6.55664C15.4989 6.09701 15.4084 5.64189 15.2325 5.21725C15.0566 4.79261 14.7988 4.40677 14.4738 4.08177C14.1488 3.75676 13.7629 3.49895 13.3383 3.32306C12.9137 3.14717 12.4585 3.05664 11.9989 3.05664C11.0706 3.05664 10.1804 3.42539 9.52403 4.08177C8.86765 4.73814 8.4989 5.62838 8.4989 6.55664C8.4989 7.4849 8.86765 8.37514 9.52403 9.03151C10.1804 9.68789 11.0706 10.0566 11.9989 10.0566ZM2.9989 20.4566V21.0566H20.9989V20.4566C20.9989 18.2166 20.9989 17.0966 20.5629 16.2406C20.1794 15.488 19.5675 14.8761 18.8149 14.4926C17.9589 14.0566 16.8389 14.0566 14.5989 14.0566H9.3989C7.1589 14.0566 6.0389 14.0566 5.1829 14.4926C4.43029 14.8761 3.81839 15.488 3.4349 16.2406C2.9989 17.0966 2.9989 18.2166 2.9989 20.4566Z" stroke="black" stroke-width="3" stroke-linecap="round" stroke-linejoin="round"/>
</svg>
