<svg width="72" height="72" viewBox="0 0 72 72" fill="none" xmlns="http://www.w3.org/2000/svg">
<path d="M70.7054 54.7516L51.9494 35.9976L70.6994 17.2456C71.0722 16.8725 71.2816 16.3666 71.2816 15.8391C71.2816 15.3117 71.0722 14.8058 70.6994 14.4326L57.5644 1.29463C57.1912 0.921519 56.6851 0.711914 56.1574 0.711914C55.6297 0.711914 55.1236 0.921519 54.7504 1.29463L35.9974 20.0466L17.2474 1.29463C16.5014 0.547629 15.1804 0.547629 14.4334 1.29463L1.29541 14.4306C0.922303 14.8038 0.712698 15.3099 0.712698 15.8376C0.712698 16.3653 0.922303 16.8714 1.29541 17.2446L20.0484 35.9976L1.29241 54.7526C0.920036 55.1262 0.710938 55.6322 0.710938 56.1596C0.710938 56.6871 0.920036 57.1931 1.29241 57.5666L14.4284 70.7036C14.8016 71.0767 15.3077 71.2863 15.8354 71.2863C16.3631 71.2863 16.8692 71.0767 17.2424 70.7036L35.9974 51.9486L54.7534 70.7026C55.1424 71.0906 55.6494 71.2856 56.1604 71.2856C56.6714 71.2856 57.1794 71.0906 57.5684 70.7026L70.7064 57.5656C71.0794 57.1923 71.2888 56.6861 71.2886 56.1584C71.2884 55.6307 71.0787 55.1247 70.7054 54.7516Z" fill="#FF0000"/>
</svg>
